<svg width="16" height="16" viewBox="0 0 16 16" fill="none" xmlns="http://www.w3.org/2000/svg">
<path d="M10.3253 12.289C10.39 12.2255 10.4256 12.138 10.4238 12.0473C10.4219 11.9566 10.3828 11.8706 10.3155 11.8098C8.97919 10.6783 7.02199 10.6783 5.68565 11.8098C5.61837 11.8706 5.57914 11.9565 5.57722 12.0472C5.57531 12.1379 5.61087 12.2254 5.67552 12.289L7.76836 14.4029C7.8297 14.465 7.91333 14.5 8.00059 14.5C8.08785 14.5 8.17148 14.465 8.23282 14.4029L10.3253 12.289Z" fill="#CCCCCC"/>
<path d="M8.00037 9.36898C9.27586 9.3689 10.5058 9.84347 11.4513 10.7005C11.5792 10.8221 11.7806 10.8195 11.9053 10.6946L13.115 9.47105C13.1787 9.40687 13.214 9.31981 13.2131 9.22935C13.2122 9.13888 13.1751 9.05256 13.1101 8.98969C10.2309 6.30877 5.77224 6.30877 2.89311 8.98969C2.82807 9.05256 2.79097 9.13892 2.79012 9.22942C2.78926 9.31991 2.82473 9.40697 2.88857 9.47105L4.0979 10.6946C4.22256 10.8195 4.424 10.8221 4.55188 10.7005C5.49672 9.84404 6.72572 9.3695 8.00037 9.36898Z" fill="#CCCCCC"/>
<path opacity="0.2" d="M8.00044 5.38827C10.3219 5.38837 12.5546 6.28128 14.2371 7.88246C14.3638 8.00608 14.5663 8.00452 14.691 7.87896L15.9021 6.65546C15.9653 6.59178 16.0005 6.50552 16 6.41577C15.9995 6.32603 15.9632 6.24019 15.8993 6.17725C11.4834 1.94092 4.51678 1.94092 0.100859 6.17725C0.0368916 6.24014 0.000597157 6.32595 7.30289e-06 6.4157C-0.000582551 6.50545 0.0345808 6.59174 0.0977163 6.65546L1.30914 7.87896C1.43384 8.00471 1.6365 8.00627 1.76312 7.88246C3.44579 6.28118 5.67875 5.38826 8.00044 5.38827Z" fill="white"/>
</svg>
